<svg width="791" height="245" viewBox="0 0 791 245" fill="none" xmlns="http://www.w3.org/2000/svg">
<path d="M2 192.316C85.0598 255.336 128.411 253.278 200.758 192.316C276.812 118.404 319.45 120.864 395.5 192.316C484.98 257.865 530.885 259.255 604.296 192.316C679.072 120.52 719.577 118.792 789 192.316" stroke="#5B2182" stroke-width="5"/>
<ellipse cx="689.621" cy="137.801" rx="12.0459" ry="9.614" fill="#CD41FF"/>
<ellipse cx="430.634" cy="214.713" rx="12.0459" ry="9.614" fill="#E1BBFD"/>
<ellipse cx="215.815" cy="180.262" rx="12.0459" ry="9.614" fill="#E1BBFD"/>
<rect x="593.254" width="192.735" height="88.1284" rx="10" fill="#CD41FF"/>
<path d="M692.657 106.218C691.061 108.08 688.18 108.08 686.584 106.218L667.463 83.916C665.239 81.3214 667.083 77.3125 670.5 77.3125H708.741C712.159 77.3125 714.002 81.3214 711.778 83.916L692.657 106.218Z" fill="#CD41FF"/>
</svg>
